<svg xmlns="http://www.w3.org/2000/svg" width="85" height="42" fill="none"><path fill="#9D8665" d="M0 41.047 42.5 0 85 41.047zm71.175-.618h12l-5.996-5.778zm-13.869 0h12L63.31 34.65zm-13.87 0h12l-6.001-5.778zm-13.896 0h12.05l-6.024-5.778zm-13.938 0h12l-5.995-5.778zm-13.79 0h12.1l-5.994-5.776zm34.357-6.364 6.28 6.166 6.334-6.113-6.33-6.129zm28.128-.386a.5.5 0 0 0-.093.648v.128l.09.05 4.64 4.557 1.364 1.153 6.319-6.098-6.186-5.96h-.363zm-42 .388 6.331 6.111 6.33-6.111-6.33-6.13zm27.736 0 6.429 6.11 6.33-6.11-6.33-6.128zm-41.606 0 6.328 6.11.445-.42 5.429-5.236a.582.582 0 0 0-.027-.95c-1.076-1.012-2.152-2.061-3.23-3.11l-1.614-1.56-.999-.963zm6.935-6.696 6.427 6.197.194-.343 5.652-5.467a.5.5 0 0 0 .1-.612v-.13l-.1-.086-5.496-5.25a1.5 1.5 0 0 0-.306-.242l-.2-.121zm28.337-.356a.53.53 0 0 0-.206.361.6.6 0 0 0 .19.445l5.212 5.067q.2.218.5.48l.211.192 6.326-6.106-6.732-6.451v.706zm13.366.4 6.332 6.113 6.33-6.114-6.33-6.111zm-27.833 0 6.324 6.105.513-.458.828-.79c1.48-1.41 3.01-2.866 4.519-4.392a.56.56 0 0 0 .247-.45.61.61 0 0 0-.241-.5 511 511 0 0 1-4.996-4.813l-.867-.81zm-6.935-6.745 6.332 6.11 6.33-6.11-6.33-6.131zm13.871 0 6.284 6.097 6.33-6.112-6.284-6.113zm13.869 0 6.332 6.095 6.33-6.114-6.332-6.094zm-.793-12.582a.3.3 0 0 1-.07.076 474 474 0 0 1-5.588 5.403.486.486 0 0 0-.105.598v.13l.1.093 5.427 5.25.48.413 6.318-6.082-6.36-6.204zm-20.013 5.87 6.317 6.097.4-.324 5.562-5.366a.51.51 0 0 0 .1-.65v-.13l-.1-.08-5.871-5.637zm7.325-7.031a.505.505 0 0 0-.018.688l5.914 5.694 6.332-6.114-6.116-5.873h-.364z"/></svg>