<svg xmlns="http://www.w3.org/2000/svg" width="199" height="33" fill="none"><g clip-path="url(#a)"><path fill="#fff" d="M49 26H0L24.5 0zM13.308 13.13l3.336 3.54 3.337-3.54-3.337-3.549zm3.336 11.875 3.337-3.539-3.337-3.55-3.336 3.55zm15.764 0 3.337-3.539-3.337-3.55-3.389 3.55zm-3.94-19.602a.4.4 0 0 1-.08.094 269 269 0 0 1-3.152 3.351c-.092.094 0 .157 0 .241l3.074 3.267.144.136 3.337-3.529zM8.787 25.005l.132-.136 3.074-3.256a.2.2 0 0 0 .076-.152.2.2 0 0 0-.076-.152c-.933-.963-1.84-1.948-2.759-2.922l-.447-.47-3.336 3.549zm8.447-16.052 3.337 3.54.105-.095 3.14-3.33c.105-.115 0-.178 0-.262L20.743 5.56l-.131-.136zm0 8.377 3.337 3.54.17-.168c1-1.048 2.01-2.095 3.022-3.215a.2.2 0 0 0 .067-.074.2.2 0 0 0 .023-.088q0-.046-.023-.09a.2.2 0 0 0-.067-.073c-.945-.994-1.891-1.99-2.824-2.994l-.368-.377zm15.764 0 3.337 3.54 3.337-3.54-3.337-3.54zm-4.532-3.55v.073l-3.166 3.362c-.105.094-.065.157 0 .24l2.943 3.142c.079.094.17.188.276.293l3.337-3.54zM12.73 20.848a.3.3 0 0 1 .065-.084l3.166-3.36c.092-.106 0-.158 0-.242l-3.113-3.267a.7.7 0 0 0-.145-.125L9.38 17.298zm19.626-4.188 3.337-3.54-3.337-3.528-3.337 3.539zm-7.882-8.377 3.337-3.54-3.285-3.466h-.065l-3.206 3.435a.14.14 0 0 0-.03.084q0 .045.03.084zm0 8.377 3.337-3.54L24.5 9.581l-3.337 3.55zm0 8.377 3.337-3.54-3.337-3.55-3.31 3.519zm15.764 0 3.337-3.54-3.324-3.518h-.066l-3.218 3.382c-.105.115 0 .168 0 .241l2.627 2.838zm-38.346.199h5.99l-2.969-3.142zm39.278 0h5.938l-2.969-3.142zm-17.616 0-2.982-3.142-2.982 3.142zm9.76 0h5.938l-2.968-3.142zm-1.917 0-2.97-3.142-2.968 3.142zm-15.764 0-2.97-3.142-2.968 3.142z"/></g><path fill="#fff" d="M75.26 25.72h.14q.225 0 .392-.14.168-.168.28-.392a1.5 1.5 0 0 0 .196-.476q.084-.252.084-.476V9.256q0-.195-.084-.448a1.5 1.5 0 0 0-.196-.476 1.1 1.1 0 0 0-.28-.364.54.54 0 0 0-.392-.168h-.14v-.28h4.032v.28h-.14q-.225 0-.392.168a1.1 1.1 0 0 0-.28.364q-.112.225-.196.476a2 2 0 0 0-.056.448v15.708h6.132q.532 0 .924-.252t.644-.616q.28-.392.392-.812.14-.449.14-.812h.28V26H75.26zm26.303-18.48q2.184 0 3.92.784 1.737.756 2.94 2.072a8.7 8.7 0 0 1 1.876 3.024 9.7 9.7 0 0 1 .672 3.584q0 2.1-.784 3.864a8.9 8.9 0 0 1-2.1 3.024 10.1 10.1 0 0 1-3.136 1.988q-1.764.7-3.78.7-2.156 0-3.892-.784a9.2 9.2 0 0 1-2.912-2.072 9.3 9.3 0 0 1-1.82-2.968 9.7 9.7 0 0 1-.644-3.5q0-1.792.644-3.528a9.6 9.6 0 0 1 1.876-3.136q1.26-1.372 3.052-2.212t4.088-.84m-.028 18.06q1.877-.084 3.276-.84 1.428-.784 2.38-1.96a8.1 8.1 0 0 0 1.4-2.632 8.9 8.9 0 0 0 .476-2.828 9.2 9.2 0 0 0-.56-3.108 9.4 9.4 0 0 0-1.596-2.828 8.1 8.1 0 0 0-2.492-2.072q-1.428-.812-3.22-.812-1.736 0-3.108.784a8 8 0 0 0-2.352 1.96 8.9 8.9 0 0 0-1.456 2.688 9 9 0 0 0-.504 2.912q0 1.54.588 3.108a10 10 0 0 0 1.624 2.8 8.5 8.5 0 0 0 2.436 2.044 6.35 6.35 0 0 0 3.108.784m16.893-17.78h3.976v.28h-.14a.54.54 0 0 0-.392.168 1.5 1.5 0 0 0-.308.364q-.112.225-.168.476a2 2 0 0 0-.056.448v11.06q0 1.092.224 2.016t.756 1.596 1.4 1.064q.868.364 2.128.364 1.4 0 2.24-.448t1.288-1.148a4.3 4.3 0 0 0 .588-1.624q.14-.896.14-1.764V9.256q0-.195-.056-.448a1.5 1.5 0 0 0-.196-.476 1.1 1.1 0 0 0-.28-.364.5.5 0 0 0-.364-.168h-.14v-.28h3.052v.28h-.14a.54.54 0 0 0-.392.168 2 2 0 0 0-.28.364q-.113.225-.168.476a2 2 0 0 0-.056.448v11.032q0 1.82-.448 2.996-.448 1.148-1.232 1.82a4.3 4.3 0 0 1-1.848.924 9.3 9.3 0 0 1-2.212.252q-1.26 0-2.352-.28a4.3 4.3 0 0 1-1.848-.924q-.784-.672-1.232-1.82-.448-1.176-.448-2.94V9.256q0-.195-.056-.448a1.5 1.5 0 0 0-.196-.476 1.1 1.1 0 0 0-.28-.364.5.5 0 0 0-.364-.168h-.14zm23.648.98q0 .168.084.42l4.928 13.272 4.928-13.412a1 1 0 0 0 .056-.168 1 1 0 0 0 .028-.168q0-.336-.28-.476a.87.87 0 0 0-.476-.168v-.28h3.052v.28q-.42 0-.784.224-.336.224-.532.756l-6.412 17.556-6.552-17.472a2 2 0 0 0-.504-.728 1.17 1.17 0 0 0-.784-.336v-.28h3.976v.28a.82.82 0 0 0-.504.196q-.224.168-.224.504m23 17.22h.14V26h-3.948v-.28h.14a.5.5 0 0 0 .364-.168q.168-.168.28-.392.14-.224.196-.476.056-.28.056-.504V9.256q0-.195-.056-.448a1.5 1.5 0 0 0-.196-.476 1.1 1.1 0 0 0-.28-.364.5.5 0 0 0-.364-.168h-.14v-.28h4.872q2.8 0 4.312 1.092 1.54 1.092 1.54 3.22 0 1.065-.364 1.876-.336.784-.924 1.372a5 5 0 0 1-1.4.924 8 8 0 0 1-1.68.504l2.016 3.08q.728 1.12 1.484 2.212.756 1.065 1.484 2.212.195.28.42.588.252.308.504.56.28.252.56.42.307.14.616.14V26h-1.204q-1.12 0-1.848-.532a5.5 5.5 0 0 1-1.176-1.288q-1.26-1.848-2.52-3.752-1.233-1.904-2.464-3.752a51 51 0 0 0-.672-.056 44 44 0 0 1-.644-.112v7.672q0 .224.056.504.055.252.168.476.14.225.28.392a.54.54 0 0 0 .392.168m-.896-17.248v7.112h.14q.223.028.7.056h1.232q.587 0 1.232-.168.672-.196 1.232-.616.588-.448.952-1.148.392-.7.392-1.764t-.42-1.736a2.8 2.8 0 0 0-1.12-1.064q-.7-.392-1.708-.532t-2.212-.14zm17.209 17.248h.14q.224 0 .392-.14.168-.168.28-.392a1.5 1.5 0 0 0 .196-.476q.084-.252.084-.476V9.256q0-.195-.084-.448a1.5 1.5 0 0 0-.196-.476 1.1 1.1 0 0 0-.28-.364.54.54 0 0 0-.392-.168h-.14v-.28h10.78v2.604h-.28a1.82 1.82 0 0 0-.504-1.12q-.448-.504-1.4-.504h-5.628v7.084h4.648q.644 0 1.064-.392.448-.392.448-.924h.28v3.5h-.28q0-.504-.42-.868t-1.092-.364h-4.648v8.484h6.132q.532 0 .924-.252t.644-.588q.28-.364.392-.756.14-.42.14-.7h.28V26h-11.48z"/><defs><clipPath id="a"><path fill="#fff" d="M0 0h49v26H0z"/></clipPath></defs></svg>