<svg xmlns="http://www.w3.org/2000/svg" width="133" height="20" fill="none"><path fill="#fff" d="M29 16H0L14.5 0zM7.876 8.08 9.85 10.26l1.974-2.178-1.974-2.185zm1.975 7.308 1.974-2.178-1.974-2.185-1.975 2.185zm9.33 0 1.974-2.178-1.975-2.185-2.006 2.185zM16.847 3.325a.2.2 0 0 1-.047.058 164 164 0 0 1-1.866 2.062c-.054.058 0 .097 0 .148l1.82 2.01.085.084 1.975-2.171zM5.201 15.388l.078-.084L7.1 13.3a.12.12 0 0 0 .045-.093.12.12 0 0 0-.046-.094c-.552-.593-1.088-1.198-1.632-1.798l-.265-.29-1.974 2.185zm5-9.879 1.974 2.178.063-.058 1.858-2.049c.062-.07 0-.11 0-.16l-1.82-1.998-.077-.084zm0 5.156 1.974 2.178.101-.104c.591-.644 1.19-1.288 1.789-1.978a.14.14 0 0 0 .039-.045.12.12 0 0 0 0-.11 205.19 205.19 0 0 1-1.71-1.888l-.219-.231zm9.33 0 1.974 2.178 1.975-2.178-1.975-2.178zM16.847 8.48v.045l-1.874 2.069c-.062.058-.039.096 0 .148l1.742 1.933q.069.085.163.18l1.975-2.178zm-9.314 4.35a.2.2 0 0 1 .039-.052l1.873-2.068c.055-.065 0-.097 0-.149l-1.842-2.01a.4.4 0 0 0-.086-.077l-1.967 2.171zm11.615-2.578 1.975-2.178-1.975-2.171-1.975 2.178zm-4.665-5.155L16.46 2.92 14.516.786h-.04L12.58 2.9a.1.1 0 0 0-.018.051q0 .028.018.052zm0 5.155 1.975-2.178L14.5 5.896l-1.975 2.185zm0 5.155 1.975-2.178-1.975-2.184-1.959 2.165zm9.33 0 1.975-2.178-1.967-2.165h-.039l-1.905 2.081c-.062.071 0 .104 0 .149l1.555 1.746zM1.12 15.53h3.545l-1.757-1.934zm23.246 0h3.514l-1.757-1.934zm-10.426 0-1.765-1.934-1.764 1.934zm5.777 0h3.514l-1.757-1.934zm-1.135 0-1.757-1.934-1.757 1.934zm-9.33 0-1.757-1.934-1.757 1.934zM54.72 15.84h.08a.34.34 0 0 0 .224-.08.9.9 0 0 0 .16-.224.9.9 0 0 0 .112-.272.9.9 0 0 0 .048-.272v-8.56a.8.8 0 0 0-.048-.256.9.9 0 0 0-.112-.272.6.6 0 0 0-.16-.208.3.3 0 0 0-.224-.096h-.08v-.16h2.304v.16h-.08a.3.3 0 0 0-.224.096.6.6 0 0 0-.16.208q-.064.128-.112.272a1.2 1.2 0 0 0-.032.256v8.976h3.504a.96.96 0 0 0 .528-.144 1.3 1.3 0 0 0 .368-.352q.16-.225.224-.464.08-.255.08-.464h.16V16h-6.56zM71.893 5.28q1.248 0 2.24.448a4.9 4.9 0 0 1 1.68 1.184 5 5 0 0 1 1.072 1.728q.384.975.384 2.048 0 1.2-.448 2.208a5.1 5.1 0 0 1-1.2 1.728q-.769.72-1.792 1.136-1.008.4-2.16.4-1.231 0-2.224-.448a5.2 5.2 0 0 1-1.664-1.184 5.3 5.3 0 0 1-1.04-1.696 5.5 5.5 0 0 1-.368-2q0-1.024.368-2.016a5.5 5.5 0 0 1 1.072-1.792 5.5 5.5 0 0 1 1.744-1.264q1.025-.48 2.336-.48m-.016 10.32q1.073-.048 1.872-.48A4.5 4.5 0 0 0 75.11 14q.545-.688.8-1.504a5.1 5.1 0 0 0 .272-1.616q0-.88-.32-1.776a5.4 5.4 0 0 0-.912-1.616 4.6 4.6 0 0 0-1.424-1.184q-.816-.464-1.84-.464-.991 0-1.776.448-.783.432-1.344 1.12a5.1 5.1 0 0 0-.832 1.536 5.2 5.2 0 0 0-.288 1.664q0 .88.336 1.776.337.88.928 1.6.592.72 1.392 1.168a3.63 3.63 0 0 0 1.776.448M83.673 5.44h2.272v.16h-.08a.3.3 0 0 0-.224.096.9.9 0 0 0-.176.208 1.2 1.2 0 0 0-.096.272 1.2 1.2 0 0 0-.032.256v6.32q0 .624.128 1.152t.432.912q.305.384.8.608.495.208 1.216.208.8 0 1.28-.256t.736-.656a2.5 2.5 0 0 0 .336-.928q.08-.511.08-1.008V6.432q0-.112-.032-.256a.9.9 0 0 0-.112-.272.6.6 0 0 0-.16-.208.3.3 0 0 0-.208-.096h-.08v-.16h1.744v.16h-.08a.3.3 0 0 0-.224.096 1.2 1.2 0 0 0-.16.208 1.2 1.2 0 0 0-.096.272 1.2 1.2 0 0 0-.032.256v6.304q0 1.04-.256 1.712-.255.656-.704 1.04a2.5 2.5 0 0 1-1.056.528 5.3 5.3 0 0 1-1.264.144q-.72 0-1.344-.16a2.5 2.5 0 0 1-1.056-.528q-.447-.384-.704-1.04-.256-.672-.256-1.68v-6.32q0-.112-.032-.256a.9.9 0 0 0-.112-.272.6.6 0 0 0-.16-.208.3.3 0 0 0-.208-.096h-.08zM99.33 6a.8.8 0 0 0 .048.24l2.816 7.584 2.816-7.664a.5.5 0 0 0 .032-.096.4.4 0 0 0 .016-.096q0-.192-.16-.272a.5.5 0 0 0-.272-.096v-.16h1.744v.16a.84.84 0 0 0-.448.128q-.192.128-.304.432l-3.664 10.032-3.744-9.984a1.1 1.1 0 0 0-.288-.416.67.67 0 0 0-.448-.192v-.16h2.272v.16a.47.47 0 0 0-.288.112q-.128.096-.128.288m15.286 9.84h.08V16h-2.256v-.16h.08a.3.3 0 0 0 .208-.096.9.9 0 0 0 .16-.224.9.9 0 0 0 .112-.272 1.5 1.5 0 0 0 .032-.288V6.432q0-.112-.032-.256a.9.9 0 0 0-.112-.272.6.6 0 0 0-.16-.208.3.3 0 0 0-.208-.096h-.08v-.16h2.784q1.6 0 2.464.624.88.625.88 1.84 0 .608-.208 1.072-.192.448-.528.784-.336.32-.8.528a4.6 4.6 0 0 1-.96.288l1.152 1.76q.416.64.848 1.264.431.608.848 1.264.111.16.24.336.144.176.288.32.16.144.32.24.175.08.352.08V16h-.688q-.64 0-1.056-.304a3.1 3.1 0 0 1-.672-.736q-.72-1.056-1.44-2.144-.705-1.088-1.408-2.144l-.384-.032-.368-.064v4.384q0 .128.032.288.032.144.096.272.08.128.16.224a.3.3 0 0 0 .224.096m-.512-9.856v4.064h.08q.127.015.4.032h.704q.335 0 .704-.096a2.2 2.2 0 0 0 .704-.352q.336-.256.544-.656.224-.4.224-1.008t-.24-.992a1.6 1.6 0 0 0-.64-.608 2.8 2.8 0 0 0-.976-.304 9 9 0 0 0-1.264-.08zm11.976 9.856h.08q.128 0 .224-.08a.8.8 0 0 0 .16-.224.8.8 0 0 0 .112-.272.9.9 0 0 0 .048-.272v-8.56a.8.8 0 0 0-.048-.256.8.8 0 0 0-.112-.272.6.6 0 0 0-.16-.208.3.3 0 0 0-.224-.096h-.08v-.16h6.16v1.488h-.16a1.04 1.04 0 0 0-.288-.64q-.255-.288-.8-.288h-3.216v4.048h2.656a.86.86 0 0 0 .608-.224.68.68 0 0 0 .256-.528h.16v2h-.16a.64.64 0 0 0-.24-.496q-.24-.208-.624-.208h-2.656v4.848h3.504a.95.95 0 0 0 .528-.144q.225-.144.368-.336.16-.208.224-.432.08-.24.08-.4h.16V16h-6.56z"/></svg>