<svg xmlns="http://www.w3.org/2000/svg" width="24" height="24" fill="none"><path fill="#fff" d="M13.02 2c1.8 0 2.18.02 3.1.06 1.06.05 1.79.22 2.42.47.66.25 1.22.6 1.77 1.15.56.55.9 1.11 1.16 1.77.25.63.41 1.36.46 2.43.05.95.06 1.32.06 3.32v1.6c0 2-.01 2.37-.06 3.32a7.3 7.3 0 0 1-.46 2.42c-.26.66-.6 1.22-1.15 1.77-.56.56-1.12.9-1.78 1.16-.63.25-1.36.41-2.42.46-.95.05-1.33.06-3.33.06H11.2c-2 0-2.37-.01-3.33-.06a7.3 7.3 0 0 1-2.42-.46 4.9 4.9 0 0 1-1.77-1.15 4.9 4.9 0 0 1-1.16-1.78 7.4 7.4 0 0 1-.46-2.42 55 55 0 0 1-.06-3.1v-2.05c0-1.8.02-2.18.06-3.1.05-1.06.22-1.79.46-2.42.26-.66.6-1.22 1.16-1.77a4.7 4.7 0 0 1 1.77-1.15 7.4 7.4 0 0 1 2.42-.47c.92-.04 1.3-.06 3.1-.06zm.02 1.8h-2.09c-1.73 0-2.1.02-3 .06-.97.04-1.5.2-1.85.34-.47.18-.8.4-1.15.75s-.57.68-.75 1.15c-.13.35-.3.88-.34 1.86-.04.9-.06 1.26-.06 3v2.08c0 1.74.02 2.1.06 3 .04.97.2 1.5.34 1.85.18.47.4.8.75 1.15s.68.57 1.15.75c.35.14.88.3 1.86.34.97.05 1.32.06 3.48.06h1.11c2.17 0 2.51-.01 3.49-.06.97-.04 1.5-.2 1.85-.34.47-.18.8-.4 1.15-.75s.57-.68.75-1.15c.14-.35.3-.88.34-1.85.05-.98.06-1.32.06-3.49v-1.1c0-2.17-.01-2.52-.06-3.5-.04-.97-.2-1.5-.34-1.85a3.1 3.1 0 0 0-.75-1.15 3.1 3.1 0 0 0-1.15-.75 5.6 5.6 0 0 0-1.85-.34q-1.5-.072-3-.06M12 6.86a5.135 5.135 0 1 1 0 10.27 5.135 5.135 0 0 1 0-10.27m0 1.8a3.335 3.335 0 1 0 0 6.67 3.335 3.335 0 0 0 0-6.67m5.33-3.2a1.2 1.2 0 1 1 0 2.4 1.2 1.2 0 0 1 0-2.4"/></svg>